<svg width="13" height="15" viewBox="0 0 13 15" fill="none" xmlns="http://www.w3.org/2000/svg">
<path d="M12.3019 13.8149C12.466 13.8149 12.63 13.979 12.63 14.1431V14.6899H0.380035V14.1431C0.380035 13.979 0.516754 13.8149 0.70816 13.8149H1.25504V1.34619C1.25504 0.990723 1.52847 0.689941 1.91129 0.689941H11.0988C11.4543 0.689941 11.755 0.990723 11.755 1.34619V13.8149H12.3019ZM3.88004 2.76807V3.86182C3.88004 4.05322 4.01675 4.18994 4.20816 4.18994H5.30191C5.46597 4.18994 5.63004 4.05322 5.63004 3.86182V2.76807C5.63004 2.604 5.46597 2.43994 5.30191 2.43994H4.20816C4.01675 2.43994 3.88004 2.604 3.88004 2.76807ZM3.88004 5.39307V6.48682C3.88004 6.67822 4.01675 6.81494 4.20816 6.81494H5.30191C5.46597 6.81494 5.63004 6.67822 5.63004 6.48682V5.39307C5.63004 5.229 5.46597 5.06494 5.30191 5.06494H4.20816C4.01675 5.06494 3.88004 5.229 3.88004 5.39307ZM5.30191 9.43994C5.46597 9.43994 5.63004 9.30322 5.63004 9.11182V8.01807C5.63004 7.854 5.46597 7.68994 5.30191 7.68994H4.20816C4.01675 7.68994 3.88004 7.854 3.88004 8.01807V9.11182C3.88004 9.30322 4.01675 9.43994 4.20816 9.43994H5.30191ZM7.38004 13.8149V11.5181C7.38004 11.354 7.21597 11.1899 7.05191 11.1899H5.95816C5.76675 11.1899 5.63004 11.354 5.63004 11.5181V13.8149H7.38004ZM9.13004 9.11182V8.01807C9.13004 7.854 8.96597 7.68994 8.80191 7.68994H7.70816C7.51675 7.68994 7.38004 7.854 7.38004 8.01807V9.11182C7.38004 9.30322 7.51675 9.43994 7.70816 9.43994H8.80191C8.96597 9.43994 9.13004 9.30322 9.13004 9.11182ZM9.13004 6.48682V5.39307C9.13004 5.229 8.96597 5.06494 8.80191 5.06494H7.70816C7.51675 5.06494 7.38004 5.229 7.38004 5.39307V6.48682C7.38004 6.67822 7.51675 6.81494 7.70816 6.81494H8.80191C8.96597 6.81494 9.13004 6.67822 9.13004 6.48682ZM9.13004 3.86182V2.76807C9.13004 2.604 8.96597 2.43994 8.80191 2.43994H7.70816C7.51675 2.43994 7.38004 2.604 7.38004 2.76807V3.86182C7.38004 4.05322 7.51675 4.18994 7.70816 4.18994H8.80191C8.96597 4.18994 9.13004 4.05322 9.13004 3.86182Z" fill="#AFAFAF"/>
</svg>
