<svg width="17" height="15" viewBox="0 0 17 15" fill="none" xmlns="http://www.w3.org/2000/svg">
<path d="M13.505 5.93994C14.4621 5.93994 16.13 6.73291 16.13 7.68994C16.13 8.67432 14.4621 9.43994 13.505 9.43994H10.3605L7.48941 14.4712C7.40738 14.6079 7.27066 14.6899 7.1066 14.6899H5.32925C5.02847 14.6899 4.80972 14.4165 4.89175 14.1431L6.2316 9.43994H3.44254L2.23941 11.0259C2.15738 11.1353 2.048 11.1899 1.91129 11.1899H0.817535C0.516754 11.1899 0.298004 10.9438 0.380035 10.6704L1.25504 7.68994L0.380035 4.73682C0.298004 4.46338 0.516754 4.18994 0.817535 4.18994H1.91129C2.048 4.18994 2.15738 4.27197 2.23941 4.38135L3.44254 5.93994H6.2316L4.89175 1.26416C4.80972 0.990723 5.02847 0.689941 5.32925 0.689941H7.1066C7.27066 0.689941 7.40738 0.799316 7.48941 0.936035L10.3605 5.93994H13.505Z" fill="#AFAFAF"/>
</svg>
