<svg width="15" height="13" viewBox="0 0 15 13" fill="none" xmlns="http://www.w3.org/2000/svg">
<path d="M13.0128 6.30713C13.7785 6.49854 14.38 7.18213 14.38 8.00244V9.31494C14.38 9.97119 14.0246 10.5454 13.505 10.8462V11.9399C13.505 12.4321 13.0949 12.8149 12.63 12.8149H11.755C11.2628 12.8149 10.88 12.4321 10.88 11.9399V11.0649H3.88004V11.9399C3.88004 12.4321 3.46988 12.8149 3.00504 12.8149H2.13004C1.63785 12.8149 1.25504 12.4321 1.25504 11.9399V10.8462C0.70816 10.5454 0.380035 9.97119 0.380035 9.31494V8.00244C0.380035 7.18213 0.954254 6.49854 1.74722 6.30713L2.34879 3.98291C2.59488 3.02588 3.46988 2.31494 4.42691 2.31494H4.75504V1.43994C4.75504 0.975098 5.13785 0.564941 5.63004 0.564941H9.13004C9.59488 0.564941 10.005 0.975098 10.005 1.43994V2.31494H10.3058C11.2628 2.31494 12.1378 3.02588 12.4113 3.98291L13.0128 6.30713ZM3.00504 9.31494C3.46988 9.31494 3.88004 8.93213 3.88004 8.43994C3.88004 7.9751 3.46988 7.56494 3.00504 7.56494C2.51285 7.56494 2.13004 7.9751 2.13004 8.43994C2.13004 8.93213 2.51285 9.31494 3.00504 9.31494ZM3.55191 6.25244H11.1808L10.716 4.42041C10.6613 4.229 10.4425 4.06494 10.3058 4.06494H4.42691C4.29019 4.06494 4.07144 4.229 4.01675 4.44775L3.55191 6.25244ZM11.755 9.31494C12.2199 9.31494 12.63 8.93213 12.63 8.43994C12.63 7.9751 12.2199 7.56494 11.755 7.56494C11.2628 7.56494 10.88 7.9751 10.88 8.43994C10.88 8.93213 11.2628 9.31494 11.755 9.31494Z" fill="#AFAFAF"/>
</svg>
